<?xml version="1.0" encoding="utf-8"?>
<!-- Generator: Adobe Illustrator 25.2.1, SVG Export Plug-In . SVG Version: 6.00 Build 0)  -->
<svg version="1.1" id="Layer_1" xmlns="http://www.w3.org/2000/svg" xmlns:xlink="http://www.w3.org/1999/xlink" x="0px" y="0px"
	 viewBox="0 0 84.1 23.1" style="enable-background:new 0 0 84.1 23.1;" xml:space="preserve">
<style type="text/css">
	.st0{fill:#03498F;}
	.st1{font-family:'Poppins-SemiBold';}
	.st2{font-size:4.5012px;}
	.st3{fill:#DA0E15;}
	.st4{fill:#0D4791;}
</style>
<g>
	<text transform="matrix(1.0577 0 0 1 45.9414 22.0254)" class="st0 st1 st2">RESEARCH LABS</text>
	<g>
		<g>
			<path class="st3" d="M45.7,8.9c0-2.4,1.4-3.7,4.2-3.7c2,0,3.4,0.9,3.9,2.4c0.1,0.5,0,0.7-0.4,0.8l-0.8,0.2
				c-0.4,0.2-0.6,0-0.8-0.4c-0.3-0.8-1-1.2-2-1.2c-1.3,0-2,0.6-2,1.8v2.7c0,1.1,0.7,1.8,2,1.8c1,0,1.7-0.4,2-1.2
				c0.2-0.4,0.4-0.5,0.8-0.4l0.8,0.2c0.4,0.2,0.5,0.4,0.4,0.8c-0.6,1.6-2,2.4-4,2.4c-2.7,0-4-1.3-4-3.7L45.7,8.9L45.7,8.9z"/>
			<path class="st3" d="M57.2,1.4c0.4,0,0.5,0.1,0.5,0.6v3.4C58,5.3,59,5.2,59.9,5.2c2.5,0,3.8,1.2,3.8,3.6v5.4
				c0,0.4-0.1,0.6-0.6,0.6h-1c-0.4,0-0.6-0.1-0.6-0.6V8.8c0-1.2-0.7-1.8-2-1.8c-0.9,0-1.5,0.1-1.9,0.3v6.9c0,0.4-0.1,0.6-0.5,0.6h-1
				c-0.4,0-0.6-0.1-0.6-0.6V2c0-0.4,0.1-0.6,0.6-0.6L57.2,1.4L57.2,1.4z"/>
			<path class="st3" d="M67.1,1.9c0.8,0,1.1,0.3,1.1,1.1v0.2c0,0.8-0.2,1.1-1.1,1.1H67c-0.8,0-1.1-0.2-1.1-1.1V3
				c0-0.8,0.2-1.1,1.1-1.1H67.1z M67.5,5.4c0.4,0,0.6,0.1,0.6,0.5v8.3c0,0.4-0.1,0.6-0.6,0.6h-1c-0.4,0-0.5-0.1-0.5-0.6V6
				c0-0.4,0.1-0.5,0.5-0.5H67.5z"/>
			<path class="st3" d="M72.7,14.2c0,0.4-0.1,0.6-0.6,0.6h-1c-0.4,0-0.6-0.1-0.6-0.6V2c0-0.4,0.1-0.6,0.6-0.6h1
				c0.4,0,0.6,0.1,0.6,0.6V14.2z"/>
			<path class="st3" d="M74.8,9.1c0-2.5,1.5-3.9,4.2-3.9c2.7,0,4.2,1.6,4.2,3.7V10c0,0.5-0.3,0.8-0.8,0.8h-5.5v0.7
				c0,1.2,0.7,1.8,2.1,1.8c1,0,1.7-0.3,2.1-1c0.3-0.4,0.5-0.5,0.9-0.2l0.6,0.3c0.4,0.2,0.5,0.5,0.2,0.9c-0.7,1.2-2,1.7-3.9,1.7
				c-2.8,0-4.2-1.5-4.2-3.9L74.8,9.1L74.8,9.1z M81.1,8.8c0-1.2-0.7-1.8-2.1-1.8c-1.4,0-2.1,0.7-2.1,1.8v0.4h4.2L81.1,8.8L81.1,8.8z
				"/>
		</g>
		<g>
			<path class="st4" d="M4.3,4.9C6.8,4.9,8,6.2,8,8.5V14c0,0.4-0.1,0.6-0.6,0.6h-1c-0.4,0-0.5-0.1-0.5-0.6V8.6c0-1.2-0.6-1.8-2-1.8
				c-0.6,0-1.2,0.1-1.7,0.2c-0.1,0-0.1,0.1-0.1,0.2V14c0,0.4-0.1,0.6-0.5,0.6h-1C0.2,14.6,0,14.4,0,14V6.6c0-0.6,0.1-0.8,0.7-1
				C1.7,5.1,2.9,4.9,4.3,4.9"/>
			<path class="st4" d="M11.5,1.7c0.8,0,1.1,0.3,1.1,1.1v0.2c0,0.8-0.2,1.1-1.1,1.1h-0.1c-0.8,0-1.1-0.2-1.1-1.1V2.8
				c0-0.8,0.2-1.1,1.1-1.1H11.5z M11.9,5.2c0.4,0,0.6,0.1,0.6,0.5V14c0,0.4-0.1,0.6-0.6,0.6h-1c-0.4,0-0.5-0.1-0.5-0.6V5.7
				c0-0.4,0.1-0.5,0.5-0.5H11.9z"/>
			<path class="st4" d="M14.5,8.6c0-2.4,1.4-3.7,4.2-3.7c2,0,3.4,0.9,3.9,2.4c0.1,0.5,0,0.7-0.4,0.8l-0.8,0.2
				c-0.4,0.2-0.6,0-0.8-0.4c-0.3-0.8-1-1.2-2-1.2c-1.3,0-2,0.6-2,1.8v2.7c0,1.1,0.7,1.8,2,1.8c1,0,1.7-0.4,2-1.2
				c0.2-0.4,0.4-0.5,0.8-0.4l0.8,0.2c0.4,0.2,0.5,0.4,0.4,0.8c-0.6,1.6-2,2.4-4,2.4c-2.7,0-4-1.3-4-3.7L14.5,8.6L14.5,8.6z"/>
		</g>
		<g>
			<g>
				<g id="XMLID_285_">
					<g id="XMLID_286_">
						<path id="XMLID_287_" class="st4" d="M42.2,4.2c-0.4,0-0.6-0.3-0.6-0.6s0.3-0.6,0.6-0.6c0.4,0,0.6,0.3,0.6,0.6
							S42.6,4.2,42.2,4.2z"/>
					</g>
				</g>
				<g id="XMLID_281_">
					<g id="XMLID_282_">
						<path id="XMLID_283_" class="st4" d="M42.5,7.1c-0.4,0-0.6-0.3-0.6-0.6s0.3-0.6,0.6-0.6c0.4,0,0.6,0.3,0.6,0.6
							S42.9,7.1,42.5,7.1z"/>
					</g>
				</g>
				<g id="XMLID_279_">
					<path id="XMLID_280_" class="st4" d="M39.5,4.5h-2.8c-0.1,0-0.2-0.1-0.2-0.2c0-0.1,0.1-0.2,0.2-0.2h2.6V1.5
						c0-0.1,0.1-0.2,0.2-0.2c0.1,0,0.2,0.1,0.2,0.2v2.7C39.7,4.4,39.6,4.5,39.5,4.5z"/>
				</g>
				<g id="XMLID_277_">
					<path id="XMLID_278_" class="st4" d="M42.2,5.6h-6.5c-0.1,0-0.2-0.1-0.2-0.2c0-0.1,0.1-0.2,0.2-0.2H42V4.2
						C42,4.1,42.1,4,42.2,4c0.1,0,0.2,0.1,0.2,0.2v1.1C42.4,5.4,42.3,5.6,42.2,5.6z"/>
				</g>
				<g id="XMLID_275_">
					<path id="XMLID_276_" class="st4" d="M42,6.6h-6.4c-0.1,0-0.2-0.1-0.2-0.2c0-0.1,0.1-0.2,0.2-0.2H42c0.1,0,0.2,0.1,0.2,0.2
						C42.3,6.5,42.2,6.6,42,6.6z"/>
				</g>
				<g id="XMLID_273_">
					<path id="XMLID_274_" class="st4" d="M40.7,9.3h-1c-0.1,0-0.2-0.1-0.2-0.2V7.8h-3c-0.1,0-0.2-0.1-0.2-0.2
						c0-0.1,0.1-0.2,0.2-0.2h3.2c0.1,0,0.2,0.1,0.2,0.2v1.3h0.7C40.9,8.9,41,9,41,9.1C41,9.2,40.9,9.3,40.7,9.3z"/>
				</g>
				<g id="XMLID_269_">
					<g id="XMLID_270_">
						<path id="XMLID_271_" class="st4" d="M39.5,1.5c-0.4,0-0.6-0.3-0.6-0.6s0.3-0.6,0.6-0.6c0.4,0,0.6,0.3,0.6,0.6
							S39.8,1.5,39.5,1.5z"/>
					</g>
				</g>
				<g id="XMLID_265_">
					<g id="XMLID_266_">
						<path id="XMLID_267_" class="st4" d="M41.2,9.7c-0.4,0-0.6-0.3-0.6-0.6c0-0.4,0.3-0.6,0.6-0.6c0.4,0,0.6,0.3,0.6,0.6
							C41.9,9.4,41.6,9.7,41.2,9.7z"/>
					</g>
				</g>
			</g>
			<path class="st4" d="M38.4,14.3c0,0-0.1,0.1-0.1,0.1c-1.9,1.6-4.5,2.3-7.1,1.7c-4.3-1.1-6.9-5.4-5.8-9.6c1-4.2,5.3-6.8,9.5-5.9
				c0.2,0,0.4,0.1,0.5,0.1c0.2,0.1,0.3,0.3,0.2,0.5c0,0.2-0.2,0.4-0.4,0.4l-0.8-0.2c0,1.7,0,2.2,0,2.2c-0.4,1.5,0.2,2,0.2,2
				c0.4,0.5,0,0.8,0,0.8c-0.6,0.4-0.8,1-0.8,1c-0.1,0.9,0.3,1.3,0.3,1.3l1.3,1.3c1.3,1,0.4,1.9,0.4,1.9c-0.7,0.8,0.1,1.3,0.1,1.3
				l1.4,0.8l0.4-0.3c0.2-0.1,0.4,0,0.5,0.2S38.6,14.1,38.4,14.3z M29.9,14.5c0,0-0.6-1.3-0.3-1.9c0.1-0.3,0.3-0.6,1.2-0.4
				c0.8,0.2,0.9-0.3,0.8-0.6c0-0.3,0.1-0.6,0.2-0.7c0.3-0.4,0.6-0.3,0.8-0.3c0.2,0,0.5-0.2,0.5-0.2c0.3-0.2,0.4-0.6,0.4-0.6
				C33.6,9.3,33.4,9,33.4,9l-0.6-0.2c-1.1-0.3-1.4-1.6-1.4-1.6c-0.1-0.7-0.9-0.9-0.9-0.9s0,0-0.6-0.2c-0.6-0.1-0.4-0.7-0.4-0.7
				l0.2-1c0.3-0.9,1.1-1.3,1.1-1.3c1.1-0.5,2.7-2,2.7-2s-4-0.3-6.1,3.2c0,0-2.5,3.3-0.4,7C27.4,12.5,28.1,13.6,29.9,14.5z"/>
		</g>
	</g>
</g>
</svg>
