<svg id="Capa_1" data-name="Capa 1" xmlns="http://www.w3.org/2000/svg" viewBox="0 0 1297 340.3"><defs><style>.cls-1{fill:#fff;}</style></defs><title>NL_LOGO</title><path class="cls-1" d="M786.24,569.13,774.81,550h-4.9v19.09h-10.4v-49H779a23.75,23.75,0,0,1,10.25,2,14.5,14.5,0,0,1,6.35,5.4,14.56,14.56,0,0,1-.86,16.36,15.35,15.35,0,0,1-8.83,5.36l12.4,19.87Zm-16.33-26.46h8.68c2.82,0,4.93-.64,6.31-1.93a7,7,0,0,0,2.08-5.37,6.64,6.64,0,0,0-2.08-5.23c-1.38-1.24-3.49-1.86-6.31-1.86h-8.68Z" transform="translate(-38 -229.32)"/><path class="cls-1" d="M817.49,528.07v12.28h17.45v7.79H817.49v13h19.68v8H807.1V520.07h30.07v8Z" transform="translate(-38 -229.32)"/><path class="cls-1" d="M854.72,567.87a15.93,15.93,0,0,1-6.86-5.06,12.76,12.76,0,0,1-2.6-7.79h11.13a6.65,6.65,0,0,0,2.27,4.77,8.31,8.31,0,0,0,5.6,1.76A9,9,0,0,0,870,559.9a5.27,5.27,0,0,0,2.08-4.32,4.85,4.85,0,0,0-1.41-3.58,10.07,10.07,0,0,0-3.53-2.21Q865,549,861.29,548a64.35,64.35,0,0,1-8.2-2.77,14.24,14.24,0,0,1-5.42-4.14,11.35,11.35,0,0,1-2.26-7.4,12.71,12.71,0,0,1,2.3-7.59,14.48,14.48,0,0,1,6.46-5,24.8,24.8,0,0,1,9.5-1.71q8,0,13,3.68a13.45,13.45,0,0,1,5.53,10.28H870.8a5.54,5.54,0,0,0-2.27-4.17,8.86,8.86,0,0,0-5.6-1.65,7.54,7.54,0,0,0-4.87,1.47,5.21,5.21,0,0,0-1.82,4.28,4.31,4.31,0,0,0,1.38,3.27,10.59,10.59,0,0,0,3.41,2.1q2,.81,5.76,1.86a63.07,63.07,0,0,1,8.24,2.81,14.67,14.67,0,0,1,5.49,4.21,11.22,11.22,0,0,1,2.3,7.37,13.35,13.35,0,0,1-2.15,7.3,14.92,14.92,0,0,1-6.31,5.37,22.47,22.47,0,0,1-9.88,2A26.07,26.07,0,0,1,854.72,567.87Z" transform="translate(-38 -229.32)"/><path class="cls-1" d="M902.2,528.07v12.28h17.44v7.79H902.2v13h19.67v8H891.81V520.07h30.06v8Z" transform="translate(-38 -229.32)"/><path class="cls-1" d="M963.07,559.79H942.43L939,569.13H928.11l18.63-49.06h12.1l18.64,49.06h-11Zm-2.82-7.86-7.49-20.49-7.5,20.49Z" transform="translate(-38 -229.32)"/><path class="cls-1" d="M1011.18,569.13,999.75,550h-4.9v19.09H984.46v-49h19.44a23.75,23.75,0,0,1,10.25,2,14.41,14.41,0,0,1,6.34,5.4,14.53,14.53,0,0,1-.85,16.36,15.35,15.35,0,0,1-8.83,5.36l12.4,19.87Zm-16.33-26.46h8.68c2.82,0,4.93-.64,6.31-1.93a7,7,0,0,0,2.08-5.37,6.64,6.64,0,0,0-2.08-5.23c-1.38-1.24-3.49-1.86-6.31-1.86h-8.68Z" transform="translate(-38 -229.32)"/><path class="cls-1" d="M1033,531.61a24,24,0,0,1,9.43-8.91,28,28,0,0,1,13.4-3.19,27.46,27.46,0,0,1,15.22,4.21,22.19,22.19,0,0,1,9.13,11.65h-12a11.86,11.86,0,0,0-5-5.26,15.33,15.33,0,0,0-7.47-1.76,16.05,16.05,0,0,0-8,2,14,14,0,0,0-5.5,5.65,19.61,19.61,0,0,0,0,17.09,13.88,13.88,0,0,0,5.5,5.68,16,16,0,0,0,8,2,15.23,15.23,0,0,0,7.47-1.79,12.17,12.17,0,0,0,5-5.3h12a22.06,22.06,0,0,1-9.1,11.69,27.6,27.6,0,0,1-15.25,4.17,28,28,0,0,1-13.4-3.19,24.07,24.07,0,0,1-9.43-8.88,26,26,0,0,1,0-25.87Z" transform="translate(-38 -229.32)"/><path class="cls-1" d="M1132,520.14v49h-10.4V548.28h-22.19v20.85h-10.39v-49h10.39v20.14h22.19V520.14Z" transform="translate(-38 -229.32)"/><path class="cls-1" d="M1170.34,561.34h17.08v7.79H1160v-49h10.39Z" transform="translate(-38 -229.32)"/><path class="cls-1" d="M1225.8,559.79h-20.64l-3.41,9.34h-10.91l18.63-49.06h12.1l18.64,49.06h-11Zm-2.82-7.86-7.49-20.49-7.5,20.49Z" transform="translate(-38 -229.32)"/><path class="cls-1" d="M1283.78,548.14a11.7,11.7,0,0,1,2.83,7.72,12,12,0,0,1-2,6.92,13.49,13.49,0,0,1-5.9,4.67,22.79,22.79,0,0,1-9.13,1.68h-22.35v-49h21.38a23.24,23.24,0,0,1,9.1,1.61,12.81,12.81,0,0,1,5.79,4.49,11.33,11.33,0,0,1,2,6.53,10.76,10.76,0,0,1-2.42,7.16,13,13,0,0,1-6.42,4.07A11.77,11.77,0,0,1,1283.78,548.14Zm-26.2-7.79h9.5a9,9,0,0,0,5.71-1.58,5.41,5.41,0,0,0,2-4.53,5.52,5.52,0,0,0-2-4.56,8.93,8.93,0,0,0-5.71-1.61h-9.5Zm16.36,19.09a5.72,5.72,0,0,0,2.12-4.77,6,6,0,0,0-2.23-4.95,9.34,9.34,0,0,0-6-1.79h-10.24v13.2H1268A9.19,9.19,0,0,0,1273.94,559.44Z" transform="translate(-38 -229.32)"/><path class="cls-1" d="M1303,567.87a15.93,15.93,0,0,1-6.86-5.06,12.76,12.76,0,0,1-2.6-7.79h11.13a6.65,6.65,0,0,0,2.27,4.77,8.31,8.31,0,0,0,5.6,1.76,9,9,0,0,0,5.72-1.65,5.24,5.24,0,0,0,2.08-4.32A4.85,4.85,0,0,0,1319,552a10.07,10.07,0,0,0-3.53-2.21q-2.12-.79-5.83-1.79a64.35,64.35,0,0,1-8.2-2.77,14.24,14.24,0,0,1-5.42-4.14,11.35,11.35,0,0,1-2.26-7.4,12.71,12.71,0,0,1,2.3-7.59,14.48,14.48,0,0,1,6.46-5,24.76,24.76,0,0,1,9.5-1.71q8,0,13,3.68a13.45,13.45,0,0,1,5.53,10.28h-11.44a5.47,5.47,0,0,0-2.26-4.17,8.86,8.86,0,0,0-5.6-1.65,7.52,7.52,0,0,0-4.87,1.47,5.2,5.2,0,0,0-1.81,4.28,4.3,4.3,0,0,0,1.37,3.27,10.64,10.64,0,0,0,3.42,2.1q2,.81,5.75,1.86a63.07,63.07,0,0,1,8.24,2.81,14.67,14.67,0,0,1,5.49,4.21,11.22,11.22,0,0,1,2.3,7.37,13.27,13.27,0,0,1-2.15,7.3,14.92,14.92,0,0,1-6.31,5.37,22.49,22.49,0,0,1-9.87,2A26.08,26.08,0,0,1,1303,567.87Z" transform="translate(-38 -229.32)"/><path class="cls-1" d="M750.41,363.8c0-37,21.67-57.95,65-57.95,31.9,0,52.84,14.61,60.38,37,2.19,7.06.49,10.23-6.08,12.66l-12.42,3.9c-6.82,2.43-10,.73-12.42-5.84-4.87-12.67-15.34-19-30.68-19-20.69,0-30.67,9.26-30.67,27.76V404c0,17.77,10.71,27.75,30.67,27.75,15.59,0,26.06-6.57,30.68-19.48,2.44-6.81,5.6-7.79,12.42-5.6L870,410.31c6.57,2.43,8.52,6.81,5.84,12.66-10,25.07-30.68,37.49-62.81,37.49-41.88,0-62.33-20.94-62.33-57.95V363.8Z" transform="translate(-38 -229.32)"/><path class="cls-1" d="M930.1,247.66c6.57,0,8.52,2.19,8.52,8.77V310c3.17-1.46,19-3.89,33.84-3.89,39.2,0,58.68,19,58.68,56.73v85c0,6.57-2.19,8.77-8.76,8.77H1007c-6.58,0-8.77-2.2-8.77-8.77V363.56c0-18.26-10.22-27.76-30.68-27.76-13.87,0-23.37,1.46-29,4.14V447.56c0,6.57-2,8.76-8.52,8.76H914.52c-6.58,0-8.77-2.19-8.77-8.76V256.18c0-6.57,2.19-8.76,8.77-8.76H930.1Z" transform="translate(-38 -229.32)"/><path class="cls-1" d="M1084.46,255.45c13.15,0,17.29,4.14,17.29,17.05v2.43c0,13.15-3.9,17.29-17.29,17.29h-2c-12.66,0-17.28-3.9-17.28-17.29V272.5c0-12.66,3.89-17.05,17.28-17.05Zm6.82,54.79c6.57,0,8.77,1.94,8.77,8.52v129c0,6.57-2.2,8.77-8.77,8.77H1075.7c-6.58,0-8.52-2.2-8.52-8.77v-129c0-6.58,1.94-8.52,8.52-8.52Z" transform="translate(-38 -229.32)"/><path class="cls-1" d="M1170.9,447.56c0,6.57-2.19,8.76-8.77,8.76h-15.34c-6.81,0-8.76-2.19-8.76-8.76V256.18c0-6.57,2-8.76,8.76-8.76h15.34c6.58,0,8.77,2.19,8.77,8.76Z" transform="translate(-38 -229.32)"/><path class="cls-1" d="M1204.25,367c0-39.45,22.89-60.87,65.5-60.87,42.85,0,65.25,24.35,65.25,58.43v17.29c0,8.28-4.14,12.17-12.66,12.17h-85.22v10.47c0,18.26,11.69,28.25,32.14,28.25,15.83,0,26.78-5.12,33.36-14.86,4.62-6.57,7.55-7.06,14.36-3.41l10,5.36c6.57,3.17,7.54,7.55,3.4,14.12-10.95,18-31.4,27-60.87,27-44.06,0-65-23.37-65-60.38V367Zm97.88-4.63c0-18.26-11-28.73-32.38-28.73-21.18,0-32.63,10.47-32.63,28.73v6.09h65.25v-6.09Z" transform="translate(-38 -229.32)"/><path class="cls-1" d="M104.71,302.08c39.45,0,58.68,20.21,58.68,56.73v85c0,6.58-2.19,8.77-8.76,8.77H139c-6.57,0-8.52-2.19-8.52-8.77v-84c0-18.5-10-27.75-30.68-27.75a103.35,103.35,0,0,0-27,3.65,2.67,2.67,0,0,0-1.95,2.92V443.78c0,6.58-2,8.77-8.52,8.77H46.77c-6.34,0-8.77-2.19-8.77-8.77V327.89c0-9,2-12.42,11-16.07,16.31-6.57,34.57-9.74,55.75-9.74" transform="translate(-38 -229.32)"/><path class="cls-1" d="M216.71,251.68c13.15,0,17.29,4.14,17.29,17v2.44c0,13.15-3.9,17.29-17.29,17.29h-2c-12.66,0-17.28-3.9-17.28-17.29v-2.44c0-12.66,3.89-17,17.28-17Zm6.82,54.78c6.57,0,8.76,2,8.76,8.52V444c0,6.57-2.19,8.76-8.76,8.76H208c-6.58,0-8.52-2.19-8.52-8.76V315c0-6.57,1.94-8.52,8.52-8.52Z" transform="translate(-38 -229.32)"/><path class="cls-1" d="M264.68,360c0-37,21.67-57.95,65-57.95,31.89,0,52.83,14.61,60.38,37,2.19,7.06.48,10.22-6.09,12.66l-12.42,3.9c-6.81,2.43-10,.73-12.41-5.85-4.87-12.66-15.34-19-30.68-19-20.7,0-30.68,9.25-30.68,27.76V400.2C297.79,418,308.5,428,328.47,428c15.58,0,26-6.58,30.68-19.48,2.43-6.82,5.6-7.79,12.41-5.6l12.66,3.65c6.58,2.44,8.53,6.82,5.85,12.66-10,25.08-30.68,37.5-62.82,37.5-41.63,0-62.33-20.94-62.33-57.95V360Z" transform="translate(-38 -229.32)"/><path class="cls-1" d="M696.38,291a10,10,0,1,1,10-10A10,10,0,0,1,696.38,291Z" transform="translate(-38 -229.32)"/><path class="cls-1" d="M701.06,336a10,10,0,1,1,10-10A10,10,0,0,1,701.06,336Z" transform="translate(-38 -229.32)"/><path class="cls-1" d="M653.3,295.15H609a3.68,3.68,0,1,1,0-7.36h40.6V248.7a3.68,3.68,0,0,1,7.36,0v42.77A3.68,3.68,0,0,1,653.3,295.15Z" transform="translate(-38 -229.32)"/><path class="cls-1" d="M696.26,312.21H595.52a3.68,3.68,0,1,1,0-7.36h97.06V291.08a3.68,3.68,0,0,1,7.36,0v17.45A3.68,3.68,0,0,1,696.26,312.21Z" transform="translate(-38 -229.32)"/><path class="cls-1" d="M693.54,329.27h-100a3.68,3.68,0,1,1,0-7.36h100a3.68,3.68,0,1,1,0,7.36Z" transform="translate(-38 -229.32)"/><path class="cls-1" d="M673.22,371.07h-15a3.68,3.68,0,0,1-3.68-3.68V347.05H608a3.68,3.68,0,1,1,0-7.36h50.16a3.68,3.68,0,0,1,3.68,3.68V363.7h11.36a3.69,3.69,0,0,1,0,7.37Z" transform="translate(-38 -229.32)"/><path class="cls-1" d="M653.25,249.37a10,10,0,1,1,10-10A10,10,0,0,1,653.25,249.37Z" transform="translate(-38 -229.32)"/><path class="cls-1" d="M680.92,376.85a10,10,0,1,1,10-10A10,10,0,0,1,680.92,376.85Z" transform="translate(-38 -229.32)"/><path class="cls-1" d="M637.14,448c-.63.51-1.27,1-1.92,1.49a124.36,124.36,0,0,1-110.08,26c-66.47-16.39-107.34-84-91-150.48,16.23-65.85,82.76-106.58,148.63-91.37a58.71,58.71,0,0,1,8.42,2c2.78.87,4.55,4.07,3.79,7.71s-3.73,6.14-6.58,5.54l-12.37-2.6c.22,26.27.21,34.77.21,34.77-6.36,23.4,3.87,30.71,3.87,30.71,6.89,7.13.59,11.89.59,11.89a34.83,34.83,0,0,0-12.9,15.84c-1.21,13.32,5.35,19.88,5.35,19.88l20.1,20c20.7,15.13,6.85,29.74,6.85,29.74-11.16,12.35,1.66,19.74,1.66,19.74l21.56,12.26,6.37-4.23c2.43-1.61,6.08-.42,8.12,2.65S639.39,446.16,637.14,448ZM503.6,451.43s-9.7-20.34-4.15-30c2.32-4,5.38-8.91,18.35-5.72,11.71,2.89,13.36-4.57,12.92-8.83-.42-4,1.93-9.21,3.63-11.22,5-5.94,8.9-4.89,12-5,3-.12,7.55-3.34,7.55-3.34,4.43-2.86,6-8.6,6-8.6,2.6-7.58-.78-12.13-.78-12.13l-9.49-2.39c-17.71-4.59-22.13-24.33-22.13-24.33-1.91-11.23-14.48-14.3-14.48-14.3s-.27-.44-9.83-2.42-5.9-10.7-5.9-10.7l3.83-15c4.58-14.06,16.87-20.44,16.87-20.44C535.5,268.49,559.57,246,559.57,246s-61.91-4.56-95.6,50.11c0,0-38.46,51.35-7,109.71C464.72,420.17,476.57,437.24,503.6,451.43Z" transform="translate(-38 -229.32)"/></svg>